<svg width="1200" height="800" viewBox="0 0 1200 800" fill="none" xmlns="http://www.w3.org/2000/svg">
  <defs>
    <linearGradient id="bg" x1="0" y1="0" x2="1" y2="1">
      <stop offset="0" stop-color="#0B1220"/>
      <stop offset="0.55" stop-color="#0B1D2E"/>
      <stop offset="1" stop-color="#07111B"/>
    </linearGradient>
    <radialGradient id="glow" cx="0" cy="0" r="1" gradientUnits="userSpaceOnUse" gradientTransform="translate(860 240) rotate(135) scale(520 420)">
      <stop offset="0" stop-color="#5DC8D6" stop-opacity="0.55"/>
      <stop offset="0.5" stop-color="#2B75A9" stop-opacity="0.25"/>
      <stop offset="1" stop-color="#0B1220" stop-opacity="0"/>
    </radialGradient>
    <linearGradient id="accent" x1="220" y1="260" x2="980" y2="540" gradientUnits="userSpaceOnUse">
      <stop offset="0" stop-color="#47B1BF"/>
      <stop offset="0.5" stop-color="#2B75A9"/>
      <stop offset="1" stop-color="#152670"/>
    </linearGradient>
    <filter id="soft" x="-20%" y="-20%" width="140%" height="140%" color-interpolation-filters="sRGB">
      <feGaussianBlur stdDeviation="14" result="blur"/>
      <feColorMatrix in="blur" type="matrix" values="1 0 0 0 0  0 1 0 0 0  0 0 1 0 0  0 0 0 .9 0"/>
      <feBlend in="SourceGraphic" mode="screen"/>
    </filter>
  </defs>

  <rect width="1200" height="800" rx="32" fill="url(#bg)"/>
  <rect width="1200" height="800" rx="32" fill="url(#glow)"/>

  <!-- subtle grid -->
  <g opacity="0.25">
    <path d="M160 140H1040" stroke="#94A3B8" stroke-opacity="0.18" stroke-width="1"/>
    <path d="M160 220H1040" stroke="#94A3B8" stroke-opacity="0.12" stroke-width="1"/>
    <path d="M160 300H1040" stroke="#94A3B8" stroke-opacity="0.10" stroke-width="1"/>
    <path d="M160 380H1040" stroke="#94A3B8" stroke-opacity="0.10" stroke-width="1"/>
    <path d="M160 460H1040" stroke="#94A3B8" stroke-opacity="0.10" stroke-width="1"/>
    <path d="M160 540H1040" stroke="#94A3B8" stroke-opacity="0.12" stroke-width="1"/>
    <path d="M160 620H1040" stroke="#94A3B8" stroke-opacity="0.18" stroke-width="1"/>
    <path d="M260 120V680" stroke="#94A3B8" stroke-opacity="0.10" stroke-width="1"/>
    <path d="M380 120V680" stroke="#94A3B8" stroke-opacity="0.10" stroke-width="1"/>
    <path d="M500 120V680" stroke="#94A3B8" stroke-opacity="0.10" stroke-width="1"/>
    <path d="M620 120V680" stroke="#94A3B8" stroke-opacity="0.10" stroke-width="1"/>
    <path d="M740 120V680" stroke="#94A3B8" stroke-opacity="0.10" stroke-width="1"/>
    <path d="M860 120V680" stroke="#94A3B8" stroke-opacity="0.10" stroke-width="1"/>
    <path d="M980 120V680" stroke="#94A3B8" stroke-opacity="0.10" stroke-width="1"/>
  </g>

  <!-- "single source" stack -->
  <g filter="url(#soft)">
    <rect x="250" y="250" width="520" height="320" rx="22" fill="rgba(255,255,255,0.06)" stroke="rgba(93,200,214,0.25)"/>
    <rect x="290" y="210" width="520" height="320" rx="22" fill="rgba(255,255,255,0.06)" stroke="rgba(71,177,191,0.28)"/>
    <rect x="330" y="170" width="520" height="320" rx="22" fill="rgba(255,255,255,0.07)" stroke="rgba(43,117,169,0.35)"/>
  </g>

  <!-- connective lines -->
  <g opacity="0.9">
    <path d="M360 360C520 300 620 300 820 260" stroke="url(#accent)" stroke-width="3" stroke-linecap="round"/>
    <path d="M360 430C520 370 620 370 820 330" stroke="rgba(93,200,214,0.65)" stroke-width="2" stroke-linecap="round"/>
    <path d="M360 500C520 440 620 440 820 400" stroke="rgba(71,177,191,0.42)" stroke-width="2" stroke-linecap="round"/>
    <circle cx="360" cy="360" r="6" fill="#5DC8D6"/>
    <circle cx="360" cy="430" r="5" fill="#47B1BF"/>
    <circle cx="360" cy="500" r="5" fill="#2B75A9"/>
    <circle cx="820" cy="260" r="6" fill="#5DC8D6"/>
    <circle cx="820" cy="330" r="5" fill="#47B1BF"/>
    <circle cx="820" cy="400" r="5" fill="#2B75A9"/>
  </g>

  <!-- small UI chips -->
  <g opacity="0.92">
    <rect x="620" y="505" width="270" height="46" rx="12" fill="rgba(15,23,42,0.7)" stroke="rgba(148,163,184,0.14)"/>
    <rect x="645" y="520" width="86" height="16" rx="8" fill="rgba(93,200,214,0.18)"/>
    <rect x="740" y="520" width="120" height="16" rx="8" fill="rgba(43,117,169,0.18)"/>
    <circle cx="600" cy="528" r="10" fill="rgba(93,200,214,0.22)" stroke="rgba(93,200,214,0.45)"/>
  </g>
</svg>
